<svg xmlns="http://www.w3.org/2000/svg" xmlns:xlink="http://www.w3.org/1999/xlink" xmlns:lucid="lucid" width="1289.6" height="820"><g transform="translate(-2.1364038972542545 -2.136403897254212)" lucid:page-tab-id="0_0"><path d="M0 0h1293.87v915.34H0z" fill="#fff"/><path d="M831.74 202.14h160v40h-160z" stroke="#000" fill="#fff"/><use xlink:href="#a" transform="matrix(1,0,0,1,836.7364038972544,207.1364038972156) translate(36.55 18.6)"/><path d="M831.74 332.14h160v40h-160z" stroke="#000" fill="#fff"/><use xlink:href="#b" transform="matrix(1,0,0,1,836.7364038972544,337.1364038972155) translate(21.4 18.6)"/><path d="M507.94 290.14h-2v-40.6h2zm0-105.4h-2v-39.8h2z"/><path d="M507.94 291.14h-2v-1.03h2zM517.98 161.8l-1.72 1.02-9.32-15.75-9.32 15.75-1.73-1 11.04-18.68z"/><use xlink:href="#c" transform="matrix(1,0,0,1,348.61140389725426,184.73640389723485) translate(59.43000000000001 14.4)"/><use xlink:href="#d" transform="matrix(1,0,0,1,348.61140389725426,184.73640389723485) translate(93.43 14.4)"/><use xlink:href="#e" transform="matrix(1,0,0,1,348.61140389725426,184.73640389723485) translate(182.33 14.4)"/><use xlink:href="#f" transform="matrix(1,0,0,1,348.61140389725426,184.73640389723485) translate(237.23000000000002 14.4)"/><use xlink:href="#g" transform="matrix(1,0,0,1,348.61140389725426,184.73640389723485) translate(0.0049999999999954525 36)"/><use xlink:href="#d" transform="matrix(1,0,0,1,348.61140389725426,184.73640389723485) translate(34.004999999999995 36)"/><use xlink:href="#e" transform="matrix(1,0,0,1,348.61140389725426,184.73640389723485) translate(122.905 36)"/><use xlink:href="#h" transform="matrix(1,0,0,1,348.61140389725426,184.73640389723485) translate(177.805 36)"/><use xlink:href="#f" transform="matrix(1,0,0,1,348.61140389725426,184.73640389723485) translate(296.65500000000003 36)"/><use xlink:href="#g" transform="matrix(1,0,0,1,348.61140389725426,184.73640389723485) translate(95.38000000000001 57.6)"/><use xlink:href="#e" transform="matrix(1,0,0,1,348.61140389725426,184.73640389723485) translate(129.38 57.6)"/><use xlink:href="#i" transform="matrix(1,0,0,1,348.61140389725426,184.73640389723485) translate(184.28000000000003 57.6)"/><path d="M829.82 520.27l-1.15 1.64-105.65-73.96h3.48zm-134.17-93.93h-3.48l-104-72.8 1.16-1.65z"/><path d="M589.35 351.9l-1.15 1.64-.26-.18v-2.44zM830.74 522.14l-21.63-1.67.16-2 18.26 1.4-7.57-16.66 1.83-.82z"/><use xlink:href="#j" transform="matrix(1,0,0,1,616.8864038972542,426.33640389721546) translate(0 14.4)"/><use xlink:href="#k" transform="matrix(1,0,0,1,616.8864038972542,426.33640389721546) translate(147.9 14.4)"/><path d="M589.3 352.55l-.95-1.77 112.94-60.34h4.23zm240.8-128.67l-43.72 23.36h-4.24l47.02-25.13z"/><path d="M589.3 352.54l-1.36.73V351l.43-.23zM831.24 222.14l-11.27 18.53-1.7-1.03 9.5-15.65-18.3-.8.1-2z"/><use xlink:href="#l" transform="matrix(1,0,0,1,628.1107441624368,247.23630428984305) translate(87.28000000000002 14.4)"/><use xlink:href="#m" transform="matrix(1,0,0,1,628.1107441624368,247.23630428984305) translate(0.0049999999999954525 36)"/><use xlink:href="#n" transform="matrix(1,0,0,1,628.1107441624368,247.23630428984305) translate(101.805 36)"/><use xlink:href="#o" transform="matrix(1,0,0,1,628.1107441624368,247.23630428984305) translate(164.60500000000002 36)"/><path d="M692.9 353.14H588.93v-2H692.9zm136.52 0h-39.68v-2h39.68z"/><path d="M588.96 353.14h-1.02v-2h1.02zM831.24 352.14l-18.67 11.04-1.02-1.72 15.76-9.32-15.75-9.32 1.02-1.73z"/><use xlink:href="#p" transform="matrix(1,0,0,1,692.8850903979412,319.7364038972155) translate(3.9550000000000054 14.4)"/><use xlink:href="#q" transform="matrix(1,0,0,1,692.8850903979412,319.7364038972155) translate(7.955000000000005 36)"/><use xlink:href="#r" transform="matrix(1,0,0,1,692.8850903979412,319.7364038972155) translate(0.005000000000002558 57.6)"/><path d="M831.74 467.14c0-2.77 2.23-5 5-5h150c2.76 0 5 2.23 5 5v110c0 2.76-2.24 5-5 5h-150c-2.77 0-5-2.24-5-5z" stroke="#000" stroke-width="2" fill="#fff"/><use xlink:href="#s" transform="matrix(1,0,0,1,839.7364038972544,470.1364038972155) translate(54.5 44.8)"/><use xlink:href="#t" transform="matrix(1,0,0,1,839.7364038972544,470.1364038972155) translate(32.55 66.4)"/><path d="M426.94 297.14c0-2.77 2.23-5 5-5h150c2.76 0 5 2.23 5 5v110c0 2.76-2.24 5-5 5h-150c-2.77 0-5-2.24-5-5z" stroke="#000" stroke-width="2" fill="#666"/><use xlink:href="#u" transform="matrix(1,0,0,1,434.9364038972543,300.1364038972155) translate(23.525 44.8)"/><use xlink:href="#v" transform="matrix(1,0,0,1,434.9364038972543,300.1364038972155) translate(17.15 66.4)"/><use xlink:href="#w" transform="matrix(1,0,0,1,434.9364038972543,300.1364038972155) translate(75 66.4)"/><path d="M507.94 519.32h-2v-41.38h2zm0-62.98h-2v-42.2h2z"/><path d="M507.94 414.16h-2v-1.02h2zM517.98 502.47l-11.04 18.67-11.05-18.67 1.72-1.02 9.32 15.76 9.32-15.75z"/><use xlink:href="#c" transform="matrix(1,0,0,1,437.01140389725435,456.33640389721546) translate(0.0049999999999954525 14.4)"/><use xlink:href="#x" transform="matrix(1,0,0,1,437.01140389725435,456.33640389721546) translate(34.004999999999995 14.4)"/><use xlink:href="#y" transform="matrix(1,0,0,1,437.01140389725435,456.33640389721546) translate(89.955 14.4)"/><path d="M507.94 759.82h-2V713.2h2zm0-68.23h-2v-47.46h2z"/><path d="M507.94 644.16h-2v-1.02h2zM517.98 742.97l-11.04 18.67-11.05-18.67 1.72-1.02 9.32 15.76 9.32-15.75z"/><use xlink:href="#z" transform="matrix(1,0,0,1,431.53640389725433,691.5864038971961) translate(0.0049999999999954525 14.4)"/><path d="M426.94 762.14h160v40h-160z" stroke="#000" fill="#fff"/><use xlink:href="#b" transform="matrix(1,0,0,1,431.9364038972543,767.1364038971766) translate(21.4 18.6)"/><path d="M651.74 762.14h160v40h-160z" stroke="#000" fill="#fff"/><use xlink:href="#b" transform="matrix(1,0,0,1,656.7364038972544,767.1364038971766) translate(21.4 18.6)"/><path d="M730.6 759.9l-.94 1.77-43.6-22.98h4.3zm-81.23-42.8h-4.3l-137.72-72.6.94-1.78z"/><path d="M507.38 644.5l-2.6-1.36h3.32zM731.74 761.64h-21.72l-.05-.94 18.3-.9-9.6-15.6 1.7-1.04z"/><use xlink:href="#A" transform="matrix(1,0,0,1,589.8424803557498,717.0897738274889) translate(0.0049999999999954525 14.4)"/><path d="M426.94 527.14c0-2.77 2.23-5 5-5h150c2.76 0 5 2.23 5 5v110c0 2.76-2.24 5-5 5h-150c-2.77 0-5-2.24-5-5z" stroke="#000" stroke-width="2" fill="#fff"/><use xlink:href="#B" transform="matrix(1,0,0,1,434.9364038972544,530.1364038972155) translate(52.55 44.8)"/><use xlink:href="#C" transform="matrix(1,0,0,1,434.9364038972544,530.1364038972155) translate(15.599999999999994 66.4)"/><path d="M426.94 73.65c0-2.76 1.93-6.12 4.32-7.5l71.35-41.5c2.4-1.4 6.27-1.4 8.66 0l71.35 41.5c2.4 1.38 4.34 4.74 4.34 7.5v63.5c0 2.75-2.24 5-5 5h-150c-2.77 0-5-2.25-5-5z" stroke="#000" stroke-width="2" fill="#fff"/><use xlink:href="#D" transform="matrix(1,0,0,1,426.9364038972543,22.136403897254212) translate(60.025 52.8)"/><use xlink:href="#E" transform="matrix(1,0,0,1,426.9364038972543,22.136403897254212) translate(56.5 74.4)"/><path d="M22.14 297.14c0-2.77 2.23-5 5-5h150c2.76 0 5 2.23 5 5v110c0 2.76-2.24 5-5 5h-150c-2.77 0-5-2.24-5-5z" stroke="#000" stroke-width="2" fill="#b2b2b2"/><use xlink:href="#F" transform="matrix(1,0,0,1,30.136403897254255,300.1364038972155) translate(23.525 34)"/><use xlink:href="#G" transform="matrix(1,0,0,1,30.136403897254255,300.1364038972155) translate(17.15 55.6)"/><use xlink:href="#H" transform="matrix(1,0,0,1,30.136403897254255,300.1364038972155) translate(75 55.6)"/><use xlink:href="#I" transform="matrix(1,0,0,1,30.136403897254255,300.1364038972155) translate(46.5 77.2)"/><path d="M22.14 147.14c0-2.77 2.23-5 5-5h150c2.76 0 5 2.23 5 5v110c0 2.76-2.24 5-5 5h-150c-2.77 0-5-2.24-5-5z" stroke="#000" stroke-width="2" fill="#b2b2b2"/><use xlink:href="#F" transform="matrix(1,0,0,1,30.136403897254255,150.13640389721544) translate(23.525 34)"/><use xlink:href="#G" transform="matrix(1,0,0,1,30.136403897254255,150.13640389721544) translate(17.15 55.6)"/><use xlink:href="#H" transform="matrix(1,0,0,1,30.136403897254255,150.13640389721544) translate(75 55.6)"/><use xlink:href="#J" transform="matrix(1,0,0,1,30.136403897254255,150.13640389721544) translate(52.525 77.2)"/><path d="M22.14 447.14c0-2.77 2.23-5 5-5h150c2.76 0 5 2.23 5 5v110c0 2.76-2.24 5-5 5h-150c-2.77 0-5-2.24-5-5z" stroke="#000" stroke-width="2" fill="#b2b2b2"/><use xlink:href="#F" transform="matrix(1,0,0,1,30.136403897254255,450.1364038972156) translate(23.525 34)"/><use xlink:href="#G" transform="matrix(1,0,0,1,30.136403897254255,450.1364038972156) translate(17.15 55.6)"/><use xlink:href="#H" transform="matrix(1,0,0,1,30.136403897254255,450.1364038972156) translate(75 55.6)"/><use xlink:href="#K" transform="matrix(1,0,0,1,30.136403897254255,450.1364038972156) translate(29.025 77.2)"/><path d="M273.8 761.7l-.9-1.77 43.92-22.13h4.45zM506.5 644.5L364.13 716.2h-4.45l145.9-73.5z"/><path d="M506.47 644.5l-.68-1.36h3.36zM285.13 744.45l-9.88 15.42 18.26 1.23-.02.54h-21.74l11.7-18.26z"/><use xlink:href="#L" transform="matrix(1,0,0,1,262.55357250887306,716.2022755788341) translate(0.0049999999999954525 14.4)"/><path d="M191.74 762.14h160v40h-160z" stroke="#000" fill="#fff"/><use xlink:href="#M" transform="matrix(1,0,0,1,196.73640389725438,767.1364038971766) translate(21.4 18.6)"/><path d="M425.6 350.76l-1.04 1.7-104.44-64.52h3.8zm-136.64-84.42h-3.8l-101-62.4 1.05-1.7z"/><path d="M425.94 350.96v2.35l-1.4-.85 1.05-1.7zM204.82 202.56l-.04 2-18.3-.36 8.5 16.2-1.76.94-10.08-19.2z"/><g><use xlink:href="#c" transform="matrix(1,0,0,1,243.11140389725426,266.33640389721546) translate(0.005000000000002558 14.4)"/><use xlink:href="#N" transform="matrix(1,0,0,1,243.11140389725426,266.33640389721546) translate(34.005 14.4)"/><use xlink:href="#O" transform="matrix(1,0,0,1,243.11140389725426,266.33640389721546) translate(88.85499999999999 14.4)"/></g><path d="M236.1 353.14h-51.15v-2h51.16zm188.84 0h-51.98v-2h51.98z"/><path d="M425.94 353.14h-1.03v-2h1.04zM202.82 342.82l-15.75 9.32 15.75 9.32-1 1.72-18.68-11.04 18.67-11.05z"/><g><use xlink:href="#c" transform="matrix(1,0,0,1,236.11140389725426,341.33640389721546) translate(0.0049999999999954525 14.4)"/><use xlink:href="#N" transform="matrix(1,0,0,1,236.11140389725426,341.33640389721546) translate(34.004999999999995 14.4)"/><use xlink:href="#P" transform="matrix(1,0,0,1,236.11140389725426,341.33640389721546) translate(88.85499999999999 14.4)"/></g><path d="M185.2 502.03l-1.04-1.7 101-62.4h3.8zM425.6 353.5l-101.68 62.84h-3.8l104.44-64.53z"/><path d="M425.94 353.3l-.35.23-1.06-1.7 1.4-.87zM195 483.86l-8.52 16.2 18.3-.34.04 2-21.68.42 10.08-19.2z"/><g><use xlink:href="#c" transform="matrix(1,0,0,1,218.63640389725427,416.3364038972155) translate(0.0049999999999954525 14.4)"/><use xlink:href="#N" transform="matrix(1,0,0,1,218.63640389725427,416.3364038972155) translate(34.004999999999995 14.4)"/><use xlink:href="#Q" transform="matrix(1,0,0,1,218.63640389725427,416.3364038972155) translate(88.85499999999999 14.4)"/></g><path d="M1087.43 676.83h100.5M1087.46 676.83h-1.03" stroke="#000" stroke-width="2" fill="none"/><path d="M1203.2 676.83l-14.27 4.64v-9.27z" stroke="#000" stroke-width="2" fill="#fff"/><path d="M1071.74 467.14c0-2.77 2.23-5 5-5h150c2.76 0 5 2.23 5 5v110c0 2.76-2.24 5-5 5h-150c-2.77 0-5-2.24-5-5z" stroke="#000" stroke-width="2" fill="#b2b2b2"/><g><use xlink:href="#R" transform="matrix(1,0,0,1,1079.7364038972544,470.1364038972155) translate(51 44.8)"/><use xlink:href="#S" transform="matrix(1,0,0,1,1079.7364038972544,470.1364038972155) translate(38.525 66.4)"/></g><path d="M1071.74 327.14c0-2.77 2.23-5 5-5h150c2.76 0 5 2.23 5 5v110c0 2.76-2.24 5-5 5h-150c-2.77 0-5-2.24-5-5z" stroke="#000" stroke-width="2" fill="#666"/><g><use xlink:href="#T" transform="matrix(1,0,0,1,1079.7364038972544,330.1364038972155) translate(27.049999999999997 55.6)"/><use xlink:href="#U" transform="matrix(1,0,0,1,1079.7364038972544,330.1364038972155) translate(72.05 55.6)"/></g><path d="M1071.74 127.14c0-2.77 2.23-5 5-5h190c2.76 0 5 2.23 5 5v50c0 2.76-2.24 5-5 5h-190c-2.77 0-5-2.24-5-5z" stroke="#000" stroke-opacity="0" stroke-width="2" fill="#fff" fill-opacity="0"/><g><use xlink:href="#V" transform="matrix(1,0,0,1,1076.7364038972544,127.13640389721544) translate(0 28.6)"/><use xlink:href="#W" transform="matrix(1,0,0,1,1076.7364038972544,127.13640389721544) translate(72.80000000000001 28.6)"/><use xlink:href="#X" transform="matrix(1,0,0,1,1076.7364038972544,127.13640389721544) translate(143.70000000000002 28.6)"/></g><path d="M1071.74 184.47c0-2.76 2.23-5 5-5h150c2.76 0 5 2.24 5 5v110c0 2.76-2.24 5-5 5h-150c-2.77 0-5-2.24-5-5z" stroke="#000" stroke-width="2" fill="#fff"/><g><use xlink:href="#Y" transform="matrix(1,0,0,1,1079.7364038972544,187.46973723054882) translate(56.05 44.8)"/><use xlink:href="#Z" transform="matrix(1,0,0,1,1079.7364038972544,187.46973723054882) translate(49.55 66.4)"/></g><path d="M1086.43 621.83c0-2.76 2.24-5 5-5h110c2.76 0 5 2.24 5 5v30c0 2.76-2.24 5-5 5h-110c-2.76 0-5-2.24-5-5z" stroke="#000" stroke-opacity="0" stroke-width="2" fill="#fff" fill-opacity="0"/><g><use xlink:href="#aa" transform="matrix(1,0,0,1,1091.4328341902046,621.8328341901657) translate(0 22.799999999999997)"/></g><path d="M1071.74 736.83h160v40h-160z" stroke="#000" fill="#fff"/><g><use xlink:href="#ab" transform="matrix(1,0,0,1,1076.7364038972544,741.8328341901657) translate(50.575 18.6)"/></g><path d="M1087.43 616.83h107.18M1087.46 616.83h-1.03M1177.25 627l17.22-10.17-17.22-10.18" stroke="#000" stroke-width="2" fill="none"/><path d="M1086.43 681.83c0-2.76 2.24-5 5-5h150c2.76 0 5 2.24 5 5v30c0 2.76-2.24 5-5 5h-150c-2.76 0-5-2.24-5-5z" stroke="#000" stroke-opacity="0" stroke-width="2" fill="#fff" fill-opacity="0"/><g><use xlink:href="#ac" transform="matrix(1,0,0,1,1091.4328341902046,681.8328341901657) translate(0 22.799999999999997)"/></g><defs><path d="M141 0L90-78 38 0H4l68-98-65-92h35l48 74 47-74h35l-64 92 68 98h-35" id="ad"/><path d="M135-143c-3-34-86-38-87 0 15 53 115 12 119 90S17 21 10-45l28-5c4 36 97 45 98 0-10-56-113-15-118-90-4-57 82-63 122-42 12 7 21 19 24 35" id="ae"/><path d="M85-194c31 0 48 13 60 33l-1-100h32l1 261h-30c-2-10 0-23-3-31C134-8 116 4 85 4 32 4 16-35 15-94c0-66 23-100 70-100zm9 24c-40 0-46 34-46 75 0 40 6 74 45 74 42 0 51-32 51-76 0-42-9-74-50-73" id="af"/><path d="M33-154v-36h34v36H33zM33 0v-36h34V0H33" id="ag"/><path d="M59-47c-2 24 18 29 38 22v24C64 9 27 4 27-40v-127H5v-23h24l9-43h21v43h35v23H59v120" id="ah"/><path d="M114-163C36-179 61-72 57 0H25l-1-190h30c1 12-1 29 2 39 6-27 23-49 58-41v29" id="ai"/><path d="M24-231v-30h32v30H24zM24 0v-190h32V0H24" id="aj"/><path d="M117-194c89-4 53 116 60 194h-32v-121c0-31-8-49-39-48C34-167 62-67 57 0H25l-1-190h30c1 10-1 24 2 32 11-22 29-35 61-36" id="ak"/><path d="M177-190C167-65 218 103 67 71c-23-6-38-20-44-43l32-5c15 47 100 32 89-28v-30C133-14 115 1 83 1 29 1 15-40 15-95c0-56 16-97 71-98 29-1 48 16 59 35 1-10 0-23 2-32h30zM94-22c36 0 50-32 50-73 0-42-14-75-50-75-39 0-46 34-46 75s6 73 46 73" id="al"/><g id="a"><use transform="matrix(0.05,0,0,0.05,0,0)" xlink:href="#ad"/><use transform="matrix(0.05,0,0,0.05,9,0)" xlink:href="#ae"/><use transform="matrix(0.05,0,0,0.05,18,0)" xlink:href="#af"/><use transform="matrix(0.05,0,0,0.05,28,0)" xlink:href="#ag"/><use transform="matrix(0.05,0,0,0.05,33,0)" xlink:href="#ae"/><use transform="matrix(0.05,0,0,0.05,42,0)" xlink:href="#ah"/><use transform="matrix(0.05,0,0,0.05,47,0)" xlink:href="#ai"/><use transform="matrix(0.05,0,0,0.05,52.95,0)" xlink:href="#aj"/><use transform="matrix(0.05,0,0,0.05,56.900000000000006,0)" xlink:href="#ak"/><use transform="matrix(0.05,0,0,0.05,66.9,0)" xlink:href="#al"/></g><path d="M141-36C126-15 110 5 73 4 37 3 15-17 15-53c-1-64 63-63 125-63 3-35-9-54-41-54-24 1-41 7-42 31l-33-3c5-37 33-52 76-52 45 0 72 20 72 64v82c-1 20 7 32 28 27v20c-31 9-61-2-59-35zM48-53c0 20 12 33 32 33 41-3 63-29 60-74-43 2-92-5-92 41" id="am"/><path d="M100-194c63 0 86 42 84 106H49c0 40 14 67 53 68 26 1 43-12 49-29l28 8c-11 28-37 45-77 45C44 4 14-33 15-96c1-61 26-98 85-98zm52 81c6-60-76-77-97-28-3 7-6 17-6 28h103" id="an"/><path d="M127-220V0H93v-220H8v-28h204v28h-85" id="ao"/><path d="M210-169c-67 3-38 105-44 169h-31v-121c0-29-5-50-35-48C34-165 62-65 56 0H25l-1-190h30c1 10-1 24 2 32 10-44 99-50 107 0 11-21 27-35 58-36 85-2 47 119 55 194h-31v-121c0-29-5-49-35-48" id="ap"/><g id="b"><use transform="matrix(0.05,0,0,0.05,0,0)" xlink:href="#ad"/><use transform="matrix(0.05,0,0,0.05,9,0)" xlink:href="#ae"/><use transform="matrix(0.05,0,0,0.05,18,0)" xlink:href="#af"/><use transform="matrix(0.05,0,0,0.05,28,0)" xlink:href="#ag"/><use transform="matrix(0.05,0,0,0.05,33,0)" xlink:href="#af"/><use transform="matrix(0.05,0,0,0.05,43,0)" xlink:href="#am"/><use transform="matrix(0.05,0,0,0.05,53,0)" xlink:href="#ah"/><use transform="matrix(0.05,0,0,0.05,58,0)" xlink:href="#an"/><use transform="matrix(0.05,0,0,0.05,68,0)" xlink:href="#ao"/><use transform="matrix(0.05,0,0,0.05,78.3,0)" xlink:href="#aj"/><use transform="matrix(0.05,0,0,0.05,82.25,0)" xlink:href="#ap"/><use transform="matrix(0.05,0,0,0.05,97.2,0)" xlink:href="#an"/></g><path d="M106-169C34-169 62-67 57 0H25v-261h32l-1 103c12-21 28-36 61-36 89 0 53 116 60 194h-32v-121c2-32-8-49-39-48" id="aq"/><g id="c"><use transform="matrix(0.05,0,0,0.05,0,0)" xlink:href="#aq"/><use transform="matrix(0.05,0,0,0.05,10,0)" xlink:href="#am"/><use transform="matrix(0.05,0,0,0.05,20,0)" xlink:href="#ae"/></g><path d="M84 4C-5 8 30-112 23-190h32v120c0 31 7 50 39 49 72-2 45-101 50-169h31l1 190h-30c-1-10 1-25-2-33-11 22-28 36-60 37" id="ar"/><path d="M100-194c62-1 85 37 85 99 1 63-27 99-86 99S16-35 15-95c0-66 28-99 85-99zM99-20c44 1 53-31 53-75 0-43-8-75-51-75s-53 32-53 75 10 74 51 75" id="as"/><g id="d"><use transform="matrix(0.05,0,0,0.05,0,0)" xlink:href="#am"/><use transform="matrix(0.05,0,0,0.05,10,0)" xlink:href="#ar"/><use transform="matrix(0.05,0,0,0.05,20,0)" xlink:href="#ah"/><use transform="matrix(0.05,0,0,0.05,25,0)" xlink:href="#aq"/><use transform="matrix(0.05,0,0,0.05,35,0)" xlink:href="#as"/><use transform="matrix(0.05,0,0,0.05,45,0)" xlink:href="#ai"/><use transform="matrix(0.05,0,0,0.05,50.95,0)" xlink:href="#aj"/><use transform="matrix(0.05,0,0,0.05,54.900000000000006,0)" xlink:href="#ae"/><use transform="matrix(0.05,0,0,0.05,63.900000000000006,0)" xlink:href="#an"/><use transform="matrix(0.05,0,0,0.05,73.9,0)" xlink:href="#af"/></g><path d="M24 0v-261h32V0H24" id="at"/><g id="e"><use transform="matrix(0.05,0,0,0.05,0,0)" xlink:href="#aq"/><use transform="matrix(0.05,0,0,0.05,10,0)" xlink:href="#as"/><use transform="matrix(0.05,0,0,0.05,20,0)" xlink:href="#at"/><use transform="matrix(0.05,0,0,0.05,23.95,0)" xlink:href="#af"/><use transform="matrix(0.05,0,0,0.05,33.95,0)" xlink:href="#an"/><use transform="matrix(0.05,0,0,0.05,43.95,0)" xlink:href="#ai"/></g><path d="M26 75v-336h71v23H56V52h41v23H26" id="au"/><path d="M27 0v-27h64v-190l-56 39v-29l58-41h29v221h61V0H27" id="av"/><path d="M3 75V52h41v-290H3v-23h71V75H3" id="aw"/><g id="f"><use transform="matrix(0.05,0,0,0.05,0,0)" xlink:href="#au"/><use transform="matrix(0.05,0,0,0.05,5,0)" xlink:href="#av"/><use transform="matrix(0.05,0,0,0.05,15,0)" xlink:href="#aw"/></g><g id="g"><use transform="matrix(0.05,0,0,0.05,0,0)" xlink:href="#aq"/><use transform="matrix(0.05,0,0,0.05,10,0)" xlink:href="#am"/><use transform="matrix(0.05,0,0,0.05,20,0)" xlink:href="#ae"/></g><path d="M115-194c55 1 70 41 70 98S169 2 115 4C84 4 66-9 55-30l1 105H24l-1-265h31l2 30c10-21 28-34 59-34zm-8 174c40 0 45-34 45-75s-6-73-45-74c-42 0-51 32-51 76 0 43 10 73 51 73" id="ax"/><path d="M108 0H70L1-190h34L89-25l56-165h34" id="ay"/><g id="h"><use transform="matrix(0.05,0,0,0.05,0,0)" xlink:href="#ai"/><use transform="matrix(0.05,0,0,0.05,5.95,0)" xlink:href="#an"/><use transform="matrix(0.05,0,0,0.05,15.949999999999998,0)" xlink:href="#ax"/><use transform="matrix(0.05,0,0,0.05,25.950000000000003,0)" xlink:href="#ai"/><use transform="matrix(0.05,0,0,0.05,31.899999999999995,0)" xlink:href="#an"/><use transform="matrix(0.05,0,0,0.05,41.9,0)" xlink:href="#ae"/><use transform="matrix(0.05,0,0,0.05,50.9,0)" xlink:href="#an"/><use transform="matrix(0.05,0,0,0.05,60.900000000000006,0)" xlink:href="#ak"/><use transform="matrix(0.05,0,0,0.05,70.9,0)" xlink:href="#ah"/><use transform="matrix(0.05,0,0,0.05,75.9,0)" xlink:href="#am"/><use transform="matrix(0.05,0,0,0.05,85.9,0)" xlink:href="#ah"/><use transform="matrix(0.05,0,0,0.05,90.9,0)" xlink:href="#aj"/><use transform="matrix(0.05,0,0,0.05,94.85000000000001,0)" xlink:href="#ay"/><use transform="matrix(0.05,0,0,0.05,103.85000000000001,0)" xlink:href="#an"/></g><path d="M33 0v-38h34V0H33" id="az"/><path d="M80-196l47-18 7 23-49 13 32 44-20 13-27-46-27 45-21-12 33-44-49-13 8-23 47 19-2-53h23" id="aA"/><g id="i"><use transform="matrix(0.05,0,0,0.05,0,0)" xlink:href="#au"/><use transform="matrix(0.05,0,0,0.05,5,0)" xlink:href="#av"/><use transform="matrix(0.05,0,0,0.05,15,0)" xlink:href="#az"/><use transform="matrix(0.05,0,0,0.05,20,0)" xlink:href="#az"/><use transform="matrix(0.05,0,0,0.05,25,0)" xlink:href="#aA"/><use transform="matrix(0.05,0,0,0.05,32,0)" xlink:href="#aw"/></g><path d="M143 4C61 4 22-44 18-125c-5-107 100-154 193-111 17 8 29 25 37 43l-32 9c-13-25-37-40-76-40-61 0-88 39-88 99 0 61 29 100 91 101 35 0 62-11 79-27v-45h-74v-28h105v86C228-13 192 4 143 4" id="aB"/><path d="M179-190L93 31C79 59 56 82 12 73V49c39 6 53-20 64-50L1-190h34L92-34l54-156h33" id="aC"/><g id="j"><use transform="matrix(0.05,0,0,0.05,0,0)" xlink:href="#al"/><use transform="matrix(0.05,0,0,0.05,10,0)" xlink:href="#an"/><use transform="matrix(0.05,0,0,0.05,20,0)" xlink:href="#as"/><use transform="matrix(0.05,0,0,0.05,30,0)" xlink:href="#ag"/><use transform="matrix(0.05,0,0,0.05,35,0)" xlink:href="#aq"/><use transform="matrix(0.05,0,0,0.05,45,0)" xlink:href="#am"/><use transform="matrix(0.05,0,0,0.05,55,0)" xlink:href="#ae"/><use transform="matrix(0.05,0,0,0.05,64,0)" xlink:href="#aB"/><use transform="matrix(0.05,0,0,0.05,78,0)" xlink:href="#an"/><use transform="matrix(0.05,0,0,0.05,88,0)" xlink:href="#as"/><use transform="matrix(0.05,0,0,0.05,98,0)" xlink:href="#ap"/><use transform="matrix(0.05,0,0,0.05,112.95,0)" xlink:href="#an"/><use transform="matrix(0.05,0,0,0.05,122.95,0)" xlink:href="#ah"/><use transform="matrix(0.05,0,0,0.05,127.95,0)" xlink:href="#ai"/><use transform="matrix(0.05,0,0,0.05,133.9,0)" xlink:href="#aC"/></g><path d="M101-251c68 0 85 55 85 127S166 4 100 4C33 4 14-52 14-124c0-73 17-127 87-127zm-1 229c47 0 54-49 54-102s-4-102-53-102c-51 0-55 48-55 102 0 53 5 102 54 102" id="aD"/><g id="k"><use transform="matrix(0.05,0,0,0.05,0,0)" xlink:href="#au"/><use transform="matrix(0.05,0,0,0.05,5,0)" xlink:href="#aD"/><use transform="matrix(0.05,0,0,0.05,15,0)" xlink:href="#az"/><use transform="matrix(0.05,0,0,0.05,20,0)" xlink:href="#az"/><use transform="matrix(0.05,0,0,0.05,25,0)" xlink:href="#aA"/><use transform="matrix(0.05,0,0,0.05,32,0)" xlink:href="#aw"/></g><path d="M96-169c-40 0-48 33-48 73s9 75 48 75c24 0 41-14 43-38l32 2c-6 37-31 61-74 61-59 0-76-41-82-99-10-93 101-131 147-64 4 7 5 14 7 22l-32 3c-4-21-16-35-41-35" id="aE"/><g id="l"><use transform="matrix(0.05,0,0,0.05,0,0)" xlink:href="#af"/><use transform="matrix(0.05,0,0,0.05,10,0)" xlink:href="#aE"/><use transform="matrix(0.05,0,0,0.05,19,0)" xlink:href="#ah"/><use transform="matrix(0.05,0,0,0.05,24,0)" xlink:href="#ag"/><use transform="matrix(0.05,0,0,0.05,29,0)" xlink:href="#ah"/><use transform="matrix(0.05,0,0,0.05,34,0)" xlink:href="#aj"/><use transform="matrix(0.05,0,0,0.05,37.95,0)" xlink:href="#ah"/><use transform="matrix(0.05,0,0,0.05,42.95,0)" xlink:href="#at"/><use transform="matrix(0.05,0,0,0.05,46.900000000000006,0)" xlink:href="#an"/></g><path d="M101-234c-31-9-42 10-38 44h38v23H63V0H32v-167H5v-23h27c-7-52 17-82 69-68v24" id="aF"/><g id="m"><use transform="matrix(0.05,0,0,0.05,0,0)" xlink:href="#af"/><use transform="matrix(0.05,0,0,0.05,10,0)" xlink:href="#aE"/><use transform="matrix(0.05,0,0,0.05,19,0)" xlink:href="#ah"/><use transform="matrix(0.05,0,0,0.05,24,0)" xlink:href="#ag"/><use transform="matrix(0.05,0,0,0.05,29,0)" xlink:href="#aj"/><use transform="matrix(0.05,0,0,0.05,32.95,0)" xlink:href="#af"/><use transform="matrix(0.05,0,0,0.05,42.95,0)" xlink:href="#an"/><use transform="matrix(0.05,0,0,0.05,52.95,0)" xlink:href="#ak"/><use transform="matrix(0.05,0,0,0.05,62.95,0)" xlink:href="#ah"/><use transform="matrix(0.05,0,0,0.05,67.95,0)" xlink:href="#aj"/><use transform="matrix(0.05,0,0,0.05,71.9,0)" xlink:href="#aF"/><use transform="matrix(0.05,0,0,0.05,76.9,0)" xlink:href="#aj"/><use transform="matrix(0.05,0,0,0.05,80.85000000000001,0)" xlink:href="#an"/><use transform="matrix(0.05,0,0,0.05,90.85000000000001,0)" xlink:href="#ai"/></g><path d="M87 75C49 33 22-17 22-94c0-76 28-126 65-167h31c-38 41-64 92-64 168S80 34 118 75H87" id="aG"/><path d="M30-248c87 1 191-15 191 75 0 78-77 80-158 76V0H30v-248zm33 125c57 0 124 11 124-50 0-59-68-47-124-48v98" id="aH"/><g id="n"><use transform="matrix(0.05,0,0,0.05,0,0)" xlink:href="#aG"/><use transform="matrix(0.05,0,0,0.05,5.95,0)" xlink:href="#aH"/><use transform="matrix(0.05,0,0,0.05,17.95,0)" xlink:href="#an"/><use transform="matrix(0.05,0,0,0.05,27.950000000000003,0)" xlink:href="#ai"/><use transform="matrix(0.05,0,0,0.05,33.9,0)" xlink:href="#ap"/><use transform="matrix(0.05,0,0,0.05,48.85,0)" xlink:href="#aj"/><use transform="matrix(0.05,0,0,0.05,52.800000000000004,0)" xlink:href="#ah"/></g><path d="M115-194c53 0 69 39 70 98 0 66-23 100-70 100C84 3 66-7 56-30L54 0H23l1-261h32v101c10-23 28-34 59-34zm-8 174c40 0 45-34 45-75 0-40-5-75-45-74-42 0-51 32-51 76 0 43 10 73 51 73" id="aI"/><path d="M33-261c38 41 65 92 65 168S71 34 33 75H2C39 34 66-17 66-93S39-220 2-261h31" id="aJ"/><g id="o"><use transform="matrix(0.05,0,0,0.05,0,0)" xlink:href="#ak"/><use transform="matrix(0.05,0,0,0.05,10,0)" xlink:href="#ar"/><use transform="matrix(0.05,0,0,0.05,20,0)" xlink:href="#ap"/><use transform="matrix(0.05,0,0,0.05,34.95,0)" xlink:href="#aI"/><use transform="matrix(0.05,0,0,0.05,44.95,0)" xlink:href="#an"/><use transform="matrix(0.05,0,0,0.05,54.95,0)" xlink:href="#ai"/><use transform="matrix(0.05,0,0,0.05,60.900000000000006,0)" xlink:href="#aJ"/></g><g id="p"><use transform="matrix(0.05,0,0,0.05,0,0)" xlink:href="#af"/><use transform="matrix(0.05,0,0,0.05,10,0)" xlink:href="#aE"/><use transform="matrix(0.05,0,0,0.05,19,0)" xlink:href="#ah"/><use transform="matrix(0.05,0,0,0.05,24,0)" xlink:href="#ag"/><use transform="matrix(0.05,0,0,0.05,29,0)" xlink:href="#aE"/><use transform="matrix(0.05,0,0,0.05,38,0)" xlink:href="#ai"/><use transform="matrix(0.05,0,0,0.05,43.95,0)" xlink:href="#an"/><use transform="matrix(0.05,0,0,0.05,53.95,0)" xlink:href="#am"/><use transform="matrix(0.05,0,0,0.05,63.95,0)" xlink:href="#ah"/><use transform="matrix(0.05,0,0,0.05,68.95,0)" xlink:href="#an"/><use transform="matrix(0.05,0,0,0.05,78.95,0)" xlink:href="#af"/></g><g id="q"><use transform="matrix(0.05,0,0,0.05,0,0)" xlink:href="#af"/><use transform="matrix(0.05,0,0,0.05,10,0)" xlink:href="#aE"/><use transform="matrix(0.05,0,0,0.05,19,0)" xlink:href="#ah"/><use transform="matrix(0.05,0,0,0.05,24,0)" xlink:href="#ag"/><use transform="matrix(0.05,0,0,0.05,29,0)" xlink:href="#aj"/><use transform="matrix(0.05,0,0,0.05,32.95,0)" xlink:href="#ae"/><use transform="matrix(0.05,0,0,0.05,41.95,0)" xlink:href="#ae"/><use transform="matrix(0.05,0,0,0.05,50.95,0)" xlink:href="#ar"/><use transform="matrix(0.05,0,0,0.05,60.95,0)" xlink:href="#an"/><use transform="matrix(0.05,0,0,0.05,70.95,0)" xlink:href="#af"/></g><g id="r"><use transform="matrix(0.05,0,0,0.05,0,0)" xlink:href="#af"/><use transform="matrix(0.05,0,0,0.05,10,0)" xlink:href="#aE"/><use transform="matrix(0.05,0,0,0.05,19,0)" xlink:href="#ah"/><use transform="matrix(0.05,0,0,0.05,24,0)" xlink:href="#ag"/><use transform="matrix(0.05,0,0,0.05,29,0)" xlink:href="#ap"/><use transform="matrix(0.05,0,0,0.05,43.95,0)" xlink:href="#as"/><use transform="matrix(0.05,0,0,0.05,53.95,0)" xlink:href="#af"/><use transform="matrix(0.05,0,0,0.05,63.95,0)" xlink:href="#aj"/><use transform="matrix(0.05,0,0,0.05,67.9,0)" xlink:href="#aF"/><use transform="matrix(0.05,0,0,0.05,72.9,0)" xlink:href="#aj"/><use transform="matrix(0.05,0,0,0.05,76.85000000000001,0)" xlink:href="#an"/><use transform="matrix(0.05,0,0,0.05,86.85000000000001,0)" xlink:href="#af"/></g><g id="s"><use transform="matrix(0.05,0,0,0.05,0,0)" xlink:href="#al"/><use transform="matrix(0.05,0,0,0.05,10,0)" xlink:href="#an"/><use transform="matrix(0.05,0,0,0.05,20,0)" xlink:href="#as"/><use transform="matrix(0.05,0,0,0.05,30,0)" xlink:href="#ag"/></g><g id="t"><use transform="matrix(0.05,0,0,0.05,0,0)" xlink:href="#aB"/><use transform="matrix(0.05,0,0,0.05,14,0)" xlink:href="#an"/><use transform="matrix(0.05,0,0,0.05,24,0)" xlink:href="#as"/><use transform="matrix(0.05,0,0,0.05,34,0)" xlink:href="#ap"/><use transform="matrix(0.05,0,0,0.05,48.95,0)" xlink:href="#an"/><use transform="matrix(0.05,0,0,0.05,58.95,0)" xlink:href="#ah"/><use transform="matrix(0.05,0,0,0.05,63.95,0)" xlink:href="#ai"/><use transform="matrix(0.05,0,0,0.05,69.9,0)" xlink:href="#aC"/></g><path fill="#fff" d="M140-251c81 0 123 46 123 126C263-53 228-8 163 1c7 30 30 48 69 40v23c-55 16-95-15-103-61C56-3 17-48 17-125c0-80 42-126 123-126zm0 227c63 0 89-41 89-101s-29-99-89-99c-61 0-89 39-89 99S79-25 140-24" id="aK"/><path fill="#fff" d="M84 4C-5 8 30-112 23-190h32v120c0 31 7 50 39 49 72-2 45-101 50-169h31l1 190h-30c-1-10 1-25-2-33-11 22-28 36-60 37" id="aL"/><path fill="#fff" d="M100-194c63 0 86 42 84 106H49c0 40 14 67 53 68 26 1 43-12 49-29l28 8c-11 28-37 45-77 45C44 4 14-33 15-96c1-61 26-98 85-98zm52 81c6-60-76-77-97-28-3 7-6 17-6 28h103" id="aM"/><path fill="#fff" d="M117-194c89-4 53 116 60 194h-32v-121c0-31-8-49-39-48C34-167 62-67 57 0H25l-1-190h30c1 10-1 24 2 32 11-22 29-35 61-36" id="aN"/><path fill="#fff" d="M135-143c-3-34-86-38-87 0 15 53 115 12 119 90S17 21 10-45l28-5c4 36 97 45 98 0-10-56-113-15-118-90-4-57 82-63 122-42 12 7 21 19 24 35" id="aO"/><path fill="#fff" d="M24 0v-261h32V0H24" id="aP"/><path fill="#fff" d="M141-36C126-15 110 5 73 4 37 3 15-17 15-53c-1-64 63-63 125-63 3-35-9-54-41-54-24 1-41 7-42 31l-33-3c5-37 33-52 76-52 45 0 72 20 72 64v82c-1 20 7 32 28 27v20c-31 9-61-2-59-35zM48-53c0 20 12 33 32 33 41-3 63-29 60-74-43 2-92-5-92 41" id="aQ"/><path fill="#fff" d="M85-194c31 0 48 13 60 33l-1-100h32l1 261h-30c-2-10 0-23-3-31C134-8 116 4 85 4 32 4 16-35 15-94c0-66 23-100 70-100zm9 24c-40 0-46 34-46 75 0 40 6 74 45 74 42 0 51-32 51-76 0-42-9-74-50-73" id="aR"/><g id="u"><use transform="matrix(0.05,0,0,0.05,0,0)" xlink:href="#aK"/><use transform="matrix(0.05,0,0,0.05,14,0)" xlink:href="#aL"/><use transform="matrix(0.05,0,0,0.05,24,0)" xlink:href="#aM"/><use transform="matrix(0.05,0,0,0.05,34,0)" xlink:href="#aM"/><use transform="matrix(0.05,0,0,0.05,44,0)" xlink:href="#aN"/><use transform="matrix(0.05,0,0,0.05,54,0)" xlink:href="#aO"/><use transform="matrix(0.05,0,0,0.05,63,0)" xlink:href="#aP"/><use transform="matrix(0.05,0,0,0.05,66.95,0)" xlink:href="#aQ"/><use transform="matrix(0.05,0,0,0.05,76.95,0)" xlink:href="#aN"/><use transform="matrix(0.05,0,0,0.05,86.95,0)" xlink:href="#aR"/></g><path fill="#fff" d="M240 0l2-218c-23 76-54 145-80 218h-23L58-218 59 0H30v-248h44l77 211c21-75 51-140 76-211h43V0h-30" id="aS"/><path fill="#fff" d="M24-231v-30h32v30H24zM24 0v-190h32V0H24" id="aT"/><path fill="#fff" d="M177-190C167-65 218 103 67 71c-23-6-38-20-44-43l32-5c15 47 100 32 89-28v-30C133-14 115 1 83 1 29 1 15-40 15-95c0-56 16-97 71-98 29-1 48 16 59 35 1-10 0-23 2-32h30zM94-22c36 0 50-32 50-73 0-42-14-75-50-75-39 0-46 34-46 75s6 73 46 73" id="aU"/><g id="v"><use transform="matrix(0.05,0,0,0.05,0,0)" xlink:href="#aS"/><use transform="matrix(0.05,0,0,0.05,14.950000000000001,0)" xlink:href="#aT"/><use transform="matrix(0.05,0,0,0.05,18.900000000000002,0)" xlink:href="#aN"/><use transform="matrix(0.05,0,0,0.05,28.900000000000002,0)" xlink:href="#aT"/><use transform="matrix(0.05,0,0,0.05,32.85,0)" xlink:href="#aN"/><use transform="matrix(0.05,0,0,0.05,42.85,0)" xlink:href="#aU"/></g><path fill="#fff" d="M30-248c87 1 191-15 191 75 0 78-77 80-158 76V0H30v-248zm33 125c57 0 124 11 124-50 0-59-68-47-124-48v98" id="aV"/><path fill="#fff" d="M114-163C36-179 61-72 57 0H25l-1-190h30c1 12-1 29 2 39 6-27 23-49 58-41v29" id="aW"/><path fill="#fff" d="M210-169c-67 3-38 105-44 169h-31v-121c0-29-5-50-35-48C34-165 62-65 56 0H25l-1-190h30c1 10-1 24 2 32 10-44 99-50 107 0 11-21 27-35 58-36 85-2 47 119 55 194h-31v-121c0-29-5-49-35-48" id="aX"/><path fill="#fff" d="M59-47c-2 24 18 29 38 22v24C64 9 27 4 27-40v-127H5v-23h24l9-43h21v43h35v23H59v120" id="aY"/><g id="w"><use transform="matrix(0.05,0,0,0.05,0,0)" xlink:href="#aV"/><use transform="matrix(0.05,0,0,0.05,12,0)" xlink:href="#aM"/><use transform="matrix(0.05,0,0,0.05,22,0)" xlink:href="#aW"/><use transform="matrix(0.05,0,0,0.05,27.950000000000003,0)" xlink:href="#aX"/><use transform="matrix(0.05,0,0,0.05,42.9,0)" xlink:href="#aT"/><use transform="matrix(0.05,0,0,0.05,46.85,0)" xlink:href="#aY"/></g><g id="x"><use transform="matrix(0.05,0,0,0.05,0,0)" xlink:href="#ah"/><use transform="matrix(0.05,0,0,0.05,5,0)" xlink:href="#an"/><use transform="matrix(0.05,0,0,0.05,15,0)" xlink:href="#ak"/><use transform="matrix(0.05,0,0,0.05,25,0)" xlink:href="#ar"/><use transform="matrix(0.05,0,0,0.05,35,0)" xlink:href="#ai"/><use transform="matrix(0.05,0,0,0.05,40.95,0)" xlink:href="#an"/></g><g id="y"><use transform="matrix(0.05,0,0,0.05,0,0)" xlink:href="#ax"/><use transform="matrix(0.05,0,0,0.05,10,0)" xlink:href="#an"/><use transform="matrix(0.05,0,0,0.05,20,0)" xlink:href="#ai"/><use transform="matrix(0.05,0,0,0.05,25.950000000000003,0)" xlink:href="#aj"/><use transform="matrix(0.05,0,0,0.05,29.899999999999995,0)" xlink:href="#as"/><use transform="matrix(0.05,0,0,0.05,39.9,0)" xlink:href="#af"/></g><path d="M30-248c118-7 216 8 213 122C240-48 200 0 122 0H30v-248zM63-27c89 8 146-16 146-99s-60-101-146-95v194" id="aZ"/><g id="z"><use transform="matrix(0.05,0,0,0.05,0,0)" xlink:href="#ah"/><use transform="matrix(0.05,0,0,0.05,5,0)" xlink:href="#aj"/><use transform="matrix(0.05,0,0,0.05,8.95,0)" xlink:href="#ap"/><use transform="matrix(0.05,0,0,0.05,23.9,0)" xlink:href="#an"/><use transform="matrix(0.05,0,0,0.05,33.9,0)" xlink:href="#ag"/><use transform="matrix(0.05,0,0,0.05,38.9,0)" xlink:href="#aq"/><use transform="matrix(0.05,0,0,0.05,48.9,0)" xlink:href="#am"/><use transform="matrix(0.05,0,0,0.05,58.900000000000006,0)" xlink:href="#ae"/><use transform="matrix(0.05,0,0,0.05,67.9,0)" xlink:href="#aB"/><use transform="matrix(0.05,0,0,0.05,81.9,0)" xlink:href="#ai"/><use transform="matrix(0.05,0,0,0.05,87.85000000000001,0)" xlink:href="#am"/><use transform="matrix(0.05,0,0,0.05,97.85000000000001,0)" xlink:href="#ak"/><use transform="matrix(0.05,0,0,0.05,107.85000000000001,0)" xlink:href="#ah"/><use transform="matrix(0.05,0,0,0.05,112.85000000000001,0)" xlink:href="#aZ"/><use transform="matrix(0.05,0,0,0.05,125.80000000000001,0)" xlink:href="#am"/><use transform="matrix(0.05,0,0,0.05,135.8,0)" xlink:href="#ah"/><use transform="matrix(0.05,0,0,0.05,140.8,0)" xlink:href="#an"/></g><path d="M30 0v-248h187v28H63v79h144v27H63v87h162V0H30" id="ba"/><g id="A"><use transform="matrix(0.05,0,0,0.05,0,0)" xlink:href="#ah"/><use transform="matrix(0.05,0,0,0.05,5,0)" xlink:href="#aj"/><use transform="matrix(0.05,0,0,0.05,8.95,0)" xlink:href="#ap"/><use transform="matrix(0.05,0,0,0.05,23.9,0)" xlink:href="#an"/><use transform="matrix(0.05,0,0,0.05,33.9,0)" xlink:href="#ag"/><use transform="matrix(0.05,0,0,0.05,38.9,0)" xlink:href="#aq"/><use transform="matrix(0.05,0,0,0.05,48.9,0)" xlink:href="#am"/><use transform="matrix(0.05,0,0,0.05,58.900000000000006,0)" xlink:href="#ae"/><use transform="matrix(0.05,0,0,0.05,67.9,0)" xlink:href="#ba"/><use transform="matrix(0.05,0,0,0.05,79.9,0)" xlink:href="#ad"/><use transform="matrix(0.05,0,0,0.05,88.9,0)" xlink:href="#ax"/><use transform="matrix(0.05,0,0,0.05,98.9,0)" xlink:href="#aj"/><use transform="matrix(0.05,0,0,0.05,102.85000000000001,0)" xlink:href="#ai"/><use transform="matrix(0.05,0,0,0.05,108.80000000000001,0)" xlink:href="#aC"/><use transform="matrix(0.05,0,0,0.05,117.80000000000001,0)" xlink:href="#aZ"/><use transform="matrix(0.05,0,0,0.05,130.75,0)" xlink:href="#am"/><use transform="matrix(0.05,0,0,0.05,140.75,0)" xlink:href="#ah"/><use transform="matrix(0.05,0,0,0.05,145.75,0)" xlink:href="#an"/></g><g id="B"><use transform="matrix(0.05,0,0,0.05,0,0)" xlink:href="#ah"/><use transform="matrix(0.05,0,0,0.05,5,0)" xlink:href="#aj"/><use transform="matrix(0.05,0,0,0.05,8.95,0)" xlink:href="#ap"/><use transform="matrix(0.05,0,0,0.05,23.9,0)" xlink:href="#an"/><use transform="matrix(0.05,0,0,0.05,33.9,0)" xlink:href="#ag"/></g><path d="M33 0v-248h34V0H33" id="bb"/><g id="C"><use transform="matrix(0.05,0,0,0.05,0,0)" xlink:href="#aH"/><use transform="matrix(0.05,0,0,0.05,12,0)" xlink:href="#ai"/><use transform="matrix(0.05,0,0,0.05,17.95,0)" xlink:href="#as"/><use transform="matrix(0.05,0,0,0.05,27.950000000000003,0)" xlink:href="#ax"/><use transform="matrix(0.05,0,0,0.05,37.95,0)" xlink:href="#an"/><use transform="matrix(0.05,0,0,0.05,47.95,0)" xlink:href="#ai"/><use transform="matrix(0.05,0,0,0.05,53.900000000000006,0)" xlink:href="#bb"/><use transform="matrix(0.05,0,0,0.05,58.900000000000006,0)" xlink:href="#ak"/><use transform="matrix(0.05,0,0,0.05,68.9,0)" xlink:href="#ah"/><use transform="matrix(0.05,0,0,0.05,73.9,0)" xlink:href="#an"/><use transform="matrix(0.05,0,0,0.05,83.9,0)" xlink:href="#ai"/><use transform="matrix(0.05,0,0,0.05,89.85000000000001,0)" xlink:href="#ay"/><use transform="matrix(0.05,0,0,0.05,98.85000000000001,0)" xlink:href="#am"/><use transform="matrix(0.05,0,0,0.05,108.85000000000001,0)" xlink:href="#at"/></g><g id="D"><use transform="matrix(0.05,0,0,0.05,0,0)" xlink:href="#ax"/><use transform="matrix(0.05,0,0,0.05,10,0)" xlink:href="#ai"/><use transform="matrix(0.05,0,0,0.05,15.949999999999998,0)" xlink:href="#as"/><use transform="matrix(0.05,0,0,0.05,25.950000000000003,0)" xlink:href="#ay"/><use transform="matrix(0.05,0,0,0.05,34.95,0)" xlink:href="#ag"/></g><path d="M205 0l-28-72H64L36 0H1l101-248h38L239 0h-34zm-38-99l-47-123c-12 45-31 82-46 123h93" id="bc"/><g id="E"><use transform="matrix(0.05,0,0,0.05,0,0)" xlink:href="#bc"/><use transform="matrix(0.05,0,0,0.05,12,0)" xlink:href="#al"/><use transform="matrix(0.05,0,0,0.05,22,0)" xlink:href="#an"/><use transform="matrix(0.05,0,0,0.05,32,0)" xlink:href="#ak"/><use transform="matrix(0.05,0,0,0.05,42,0)" xlink:href="#ah"/></g><path d="M140-251c81 0 123 46 123 126C263-53 228-8 163 1c7 30 30 48 69 40v23c-55 16-95-15-103-61C56-3 17-48 17-125c0-80 42-126 123-126zm0 227c63 0 89-41 89-101s-29-99-89-99c-61 0-89 39-89 99S79-25 140-24" id="bd"/><g id="F"><use transform="matrix(0.05,0,0,0.05,0,0)" xlink:href="#bd"/><use transform="matrix(0.05,0,0,0.05,14,0)" xlink:href="#ar"/><use transform="matrix(0.05,0,0,0.05,24,0)" xlink:href="#an"/><use transform="matrix(0.05,0,0,0.05,34,0)" xlink:href="#an"/><use transform="matrix(0.05,0,0,0.05,44,0)" xlink:href="#ak"/><use transform="matrix(0.05,0,0,0.05,54,0)" xlink:href="#ae"/><use transform="matrix(0.05,0,0,0.05,63,0)" xlink:href="#at"/><use transform="matrix(0.05,0,0,0.05,66.95,0)" xlink:href="#am"/><use transform="matrix(0.05,0,0,0.05,76.95,0)" xlink:href="#ak"/><use transform="matrix(0.05,0,0,0.05,86.95,0)" xlink:href="#af"/></g><path d="M240 0l2-218c-23 76-54 145-80 218h-23L58-218 59 0H30v-248h44l77 211c21-75 51-140 76-211h43V0h-30" id="be"/><g id="G"><use transform="matrix(0.05,0,0,0.05,0,0)" xlink:href="#be"/><use transform="matrix(0.05,0,0,0.05,14.950000000000001,0)" xlink:href="#aj"/><use transform="matrix(0.05,0,0,0.05,18.900000000000002,0)" xlink:href="#ak"/><use transform="matrix(0.05,0,0,0.05,28.900000000000002,0)" xlink:href="#aj"/><use transform="matrix(0.05,0,0,0.05,32.85,0)" xlink:href="#ak"/><use transform="matrix(0.05,0,0,0.05,42.85,0)" xlink:href="#al"/></g><g id="H"><use transform="matrix(0.05,0,0,0.05,0,0)" xlink:href="#aH"/><use transform="matrix(0.05,0,0,0.05,12,0)" xlink:href="#an"/><use transform="matrix(0.05,0,0,0.05,22,0)" xlink:href="#ai"/><use transform="matrix(0.05,0,0,0.05,27.950000000000003,0)" xlink:href="#ap"/><use transform="matrix(0.05,0,0,0.05,42.9,0)" xlink:href="#aj"/><use transform="matrix(0.05,0,0,0.05,46.85,0)" xlink:href="#ah"/></g><path d="M185-189c-5-48-123-54-124 2 14 75 158 14 163 119 3 78-121 87-175 55-17-10-28-26-33-46l33-7c5 56 141 63 141-1 0-78-155-14-162-118-5-82 145-84 179-34 5 7 8 16 11 25" id="bf"/><g id="I"><use transform="matrix(0.05,0,0,0.05,0,0)" xlink:href="#bf"/><use transform="matrix(0.05,0,0,0.05,12,0)" xlink:href="#ah"/><use transform="matrix(0.05,0,0,0.05,17,0)" xlink:href="#am"/><use transform="matrix(0.05,0,0,0.05,27,0)" xlink:href="#ah"/><use transform="matrix(0.05,0,0,0.05,32,0)" xlink:href="#ar"/><use transform="matrix(0.05,0,0,0.05,42,0)" xlink:href="#ae"/></g><g id="J"><use transform="matrix(0.05,0,0,0.05,0,0)" xlink:href="#ao"/><use transform="matrix(0.05,0,0,0.05,9.950000000000001,0)" xlink:href="#aC"/><use transform="matrix(0.05,0,0,0.05,18.950000000000003,0)" xlink:href="#ax"/><use transform="matrix(0.05,0,0,0.05,28.950000000000003,0)" xlink:href="#an"/></g><path d="M16-82v-28h88v28H16" id="bg"/><g id="K"><use transform="matrix(0.05,0,0,0.05,0,0)" xlink:href="#bf"/><use transform="matrix(0.05,0,0,0.05,12,0)" xlink:href="#ar"/><use transform="matrix(0.05,0,0,0.05,22,0)" xlink:href="#aI"/><use transform="matrix(0.05,0,0,0.05,32,0)" xlink:href="#bg"/><use transform="matrix(0.05,0,0,0.05,37.95,0)" xlink:href="#ae"/><use transform="matrix(0.05,0,0,0.05,46.95,0)" xlink:href="#ah"/><use transform="matrix(0.05,0,0,0.05,51.95,0)" xlink:href="#am"/><use transform="matrix(0.05,0,0,0.05,61.95,0)" xlink:href="#ah"/><use transform="matrix(0.05,0,0,0.05,66.95,0)" xlink:href="#ar"/><use transform="matrix(0.05,0,0,0.05,76.95,0)" xlink:href="#ae"/></g><path d="M30 0v-248h33v221h125V0H30" id="bh"/><g id="L"><use transform="matrix(0.05,0,0,0.05,0,0)" xlink:href="#ah"/><use transform="matrix(0.05,0,0,0.05,5,0)" xlink:href="#aj"/><use transform="matrix(0.05,0,0,0.05,8.95,0)" xlink:href="#ap"/><use transform="matrix(0.05,0,0,0.05,23.9,0)" xlink:href="#an"/><use transform="matrix(0.05,0,0,0.05,33.9,0)" xlink:href="#ag"/><use transform="matrix(0.05,0,0,0.05,38.9,0)" xlink:href="#aq"/><use transform="matrix(0.05,0,0,0.05,48.9,0)" xlink:href="#am"/><use transform="matrix(0.05,0,0,0.05,58.900000000000006,0)" xlink:href="#ae"/><use transform="matrix(0.05,0,0,0.05,67.9,0)" xlink:href="#bh"/><use transform="matrix(0.05,0,0,0.05,77.9,0)" xlink:href="#as"/><use transform="matrix(0.05,0,0,0.05,87.9,0)" xlink:href="#af"/><use transform="matrix(0.05,0,0,0.05,97.9,0)" xlink:href="#al"/><use transform="matrix(0.05,0,0,0.05,107.9,0)" xlink:href="#an"/><use transform="matrix(0.05,0,0,0.05,117.9,0)" xlink:href="#aZ"/><use transform="matrix(0.05,0,0,0.05,130.85,0)" xlink:href="#am"/><use transform="matrix(0.05,0,0,0.05,140.85,0)" xlink:href="#ah"/><use transform="matrix(0.05,0,0,0.05,145.85,0)" xlink:href="#an"/></g><g id="M"><use transform="matrix(0.05,0,0,0.05,0,0)" xlink:href="#ad"/><use transform="matrix(0.05,0,0,0.05,9,0)" xlink:href="#ae"/><use transform="matrix(0.05,0,0,0.05,18,0)" xlink:href="#af"/><use transform="matrix(0.05,0,0,0.05,28,0)" xlink:href="#ag"/><use transform="matrix(0.05,0,0,0.05,33,0)" xlink:href="#af"/><use transform="matrix(0.05,0,0,0.05,43,0)" xlink:href="#am"/><use transform="matrix(0.05,0,0,0.05,53,0)" xlink:href="#ah"/><use transform="matrix(0.05,0,0,0.05,58,0)" xlink:href="#an"/><use transform="matrix(0.05,0,0,0.05,68,0)" xlink:href="#ao"/><use transform="matrix(0.05,0,0,0.05,78.3,0)" xlink:href="#aj"/><use transform="matrix(0.05,0,0,0.05,82.25,0)" xlink:href="#ap"/><use transform="matrix(0.05,0,0,0.05,97.2,0)" xlink:href="#an"/></g><g id="N"><use transform="matrix(0.05,0,0,0.05,0,0)" xlink:href="#ax"/><use transform="matrix(0.05,0,0,0.05,10,0)" xlink:href="#an"/><use transform="matrix(0.05,0,0,0.05,20,0)" xlink:href="#ai"/><use transform="matrix(0.05,0,0,0.05,25.950000000000003,0)" xlink:href="#ap"/><use transform="matrix(0.05,0,0,0.05,40.9,0)" xlink:href="#aj"/><use transform="matrix(0.05,0,0,0.05,44.85,0)" xlink:href="#ah"/></g><g id="O"><use transform="matrix(0.05,0,0,0.05,0,0)" xlink:href="#ah"/><use transform="matrix(0.05,0,0,0.05,5,0)" xlink:href="#aC"/><use transform="matrix(0.05,0,0,0.05,14,0)" xlink:href="#ax"/><use transform="matrix(0.05,0,0,0.05,24,0)" xlink:href="#an"/></g><g id="P"><use transform="matrix(0.05,0,0,0.05,0,0)" xlink:href="#ae"/><use transform="matrix(0.05,0,0,0.05,9,0)" xlink:href="#ah"/><use transform="matrix(0.05,0,0,0.05,14,0)" xlink:href="#am"/><use transform="matrix(0.05,0,0,0.05,24,0)" xlink:href="#ah"/><use transform="matrix(0.05,0,0,0.05,29,0)" xlink:href="#ar"/><use transform="matrix(0.05,0,0,0.05,39,0)" xlink:href="#ae"/></g><g id="Q"><use transform="matrix(0.05,0,0,0.05,0,0)" xlink:href="#ae"/><use transform="matrix(0.05,0,0,0.05,9,0)" xlink:href="#ar"/><use transform="matrix(0.05,0,0,0.05,19,0)" xlink:href="#aI"/><use transform="matrix(0.05,0,0,0.05,29,0)" xlink:href="#bg"/><use transform="matrix(0.05,0,0,0.05,34.95,0)" xlink:href="#ae"/><use transform="matrix(0.05,0,0,0.05,43.95,0)" xlink:href="#ah"/><use transform="matrix(0.05,0,0,0.05,48.95,0)" xlink:href="#am"/><use transform="matrix(0.05,0,0,0.05,58.95,0)" xlink:href="#ah"/><use transform="matrix(0.05,0,0,0.05,63.95,0)" xlink:href="#ar"/><use transform="matrix(0.05,0,0,0.05,73.95,0)" xlink:href="#ae"/></g><path d="M143 0L79-87 56-68V0H24v-261h32v163l83-92h37l-77 82L181 0h-38" id="bi"/><g id="R"><use transform="matrix(0.05,0,0,0.05,0,0)" xlink:href="#ae"/><use transform="matrix(0.05,0,0,0.05,9,0)" xlink:href="#bi"/><use transform="matrix(0.05,0,0,0.05,18,0)" xlink:href="#as"/><use transform="matrix(0.05,0,0,0.05,28,0)" xlink:href="#ae"/><use transform="matrix(0.05,0,0,0.05,37,0)" xlink:href="#ag"/></g><path d="M212-179c-10-28-35-45-73-45-59 0-87 40-87 99 0 60 29 101 89 101 43 0 62-24 78-52l27 14C228-24 195 4 139 4 59 4 22-46 18-125c-6-104 99-153 187-111 19 9 31 26 39 46" id="bj"/><g id="S"><use transform="matrix(0.05,0,0,0.05,0,0)" xlink:href="#bj"/><use transform="matrix(0.05,0,0,0.05,12.950000000000001,0)" xlink:href="#as"/><use transform="matrix(0.05,0,0,0.05,22.950000000000003,0)" xlink:href="#ak"/><use transform="matrix(0.05,0,0,0.05,32.95,0)" xlink:href="#aE"/><use transform="matrix(0.05,0,0,0.05,41.95,0)" xlink:href="#an"/><use transform="matrix(0.05,0,0,0.05,51.95,0)" xlink:href="#ax"/><use transform="matrix(0.05,0,0,0.05,61.95,0)" xlink:href="#ah"/></g><path fill="#fff" d="M143 4C61 4 22-44 18-125c-5-107 100-154 193-111 17 8 29 25 37 43l-32 9c-13-25-37-40-76-40-61 0-88 39-88 99 0 61 29 100 91 101 35 0 62-11 79-27v-45h-74v-28h105v86C228-13 192 4 143 4" id="bk"/><path fill="#fff" d="M185-189c-5-48-123-54-124 2 14 75 158 14 163 119 3 78-121 87-175 55-17-10-28-26-33-46l33-7c5 56 141 63 141-1 0-78-155-14-162-118-5-82 145-84 179-34 5 7 8 16 11 25" id="bl"/><g id="T"><use transform="matrix(0.05,0,0,0.05,0,0)" xlink:href="#bk"/><use transform="matrix(0.05,0,0,0.05,14,0)" xlink:href="#bl"/><use transform="matrix(0.05,0,0,0.05,26,0)" xlink:href="#aK"/></g><path fill="#fff" d="M212-179c-10-28-35-45-73-45-59 0-87 40-87 99 0 60 29 101 89 101 43 0 62-24 78-52l27 14C228-24 195 4 139 4 59 4 22-46 18-125c-6-104 99-153 187-111 19 9 31 26 39 46" id="bm"/><g id="U"><use transform="matrix(0.05,0,0,0.05,0,0)" xlink:href="#bm"/><use transform="matrix(0.05,0,0,0.05,12.950000000000001,0)" xlink:href="#aP"/><use transform="matrix(0.05,0,0,0.05,16.900000000000002,0)" xlink:href="#aQ"/><use transform="matrix(0.05,0,0,0.05,26.900000000000002,0)" xlink:href="#aO"/><use transform="matrix(0.05,0,0,0.05,35.900000000000006,0)" xlink:href="#aO"/></g><g id="V"><use transform="matrix(0.05,0,0,0.05,0,0)" xlink:href="#aZ"/><use transform="matrix(0.05,0,0,0.05,12.950000000000001,0)" xlink:href="#aj"/><use transform="matrix(0.05,0,0,0.05,16.900000000000002,0)" xlink:href="#am"/><use transform="matrix(0.05,0,0,0.05,26.900000000000002,0)" xlink:href="#al"/><use transform="matrix(0.05,0,0,0.05,36.900000000000006,0)" xlink:href="#ai"/><use transform="matrix(0.05,0,0,0.05,42.85000000000001,0)" xlink:href="#am"/><use transform="matrix(0.05,0,0,0.05,52.85,0)" xlink:href="#ap"/><path d="M-.9 1.25h74.6v1.32H-.9z"/></g><g id="W"><use transform="matrix(0.05,0,0,0.05,0,0)" xlink:href="#ba"/><use transform="matrix(0.05,0,0,0.05,12,0)" xlink:href="#at"/><use transform="matrix(0.05,0,0,0.05,15.949999999999998,0)" xlink:href="#an"/><use transform="matrix(0.05,0,0,0.05,25.950000000000003,0)" xlink:href="#ap"/><use transform="matrix(0.05,0,0,0.05,40.9,0)" xlink:href="#an"/><use transform="matrix(0.05,0,0,0.05,50.9,0)" xlink:href="#ak"/><use transform="matrix(0.05,0,0,0.05,60.900000000000006,0)" xlink:href="#ah"/><path d="M-.9 1.25h72.7v1.32H-.9z"/></g><path d="M194 0L95-120 63-95V0H30v-248h33v124l119-124h40L117-140 236 0h-42" id="bn"/><g id="X"><use transform="matrix(0.05,0,0,0.05,0,0)" xlink:href="#bn"/><use transform="matrix(0.05,0,0,0.05,12,0)" xlink:href="#an"/><use transform="matrix(0.05,0,0,0.05,22,0)" xlink:href="#aC"/><path d="M-.9 1.25h32.8v1.32H-.9z"/></g><path d="M206 0h-36l-40-164L89 0H53L-1-190h32L70-26l43-164h34l41 164 42-164h31" id="bo"/><g id="Y"><use transform="matrix(0.05,0,0,0.05,0,0)" xlink:href="#as"/><use transform="matrix(0.05,0,0,0.05,10,0)" xlink:href="#bo"/><use transform="matrix(0.05,0,0,0.05,22.950000000000003,0)" xlink:href="#at"/><use transform="matrix(0.05,0,0,0.05,26.900000000000002,0)" xlink:href="#ag"/></g><g id="Z"><use transform="matrix(0.05,0,0,0.05,0,0)" xlink:href="#bj"/><use transform="matrix(0.05,0,0,0.05,12.950000000000001,0)" xlink:href="#at"/><use transform="matrix(0.05,0,0,0.05,16.900000000000002,0)" xlink:href="#am"/><use transform="matrix(0.05,0,0,0.05,26.900000000000002,0)" xlink:href="#ae"/><use transform="matrix(0.05,0,0,0.05,35.900000000000006,0)" xlink:href="#ae"/></g><g id="aa"><use transform="matrix(0.05,0,0,0.05,0,0)" xlink:href="#ai"/><use transform="matrix(0.05,0,0,0.05,5.95,0)" xlink:href="#af"/><use transform="matrix(0.05,0,0,0.05,15.949999999999998,0)" xlink:href="#aF"/><use transform="matrix(0.05,0,0,0.05,20.95,0)" xlink:href="#ag"/><use transform="matrix(0.05,0,0,0.05,25.950000000000003,0)" xlink:href="#ax"/><use transform="matrix(0.05,0,0,0.05,35.95,0)" xlink:href="#ai"/><use transform="matrix(0.05,0,0,0.05,41.900000000000006,0)" xlink:href="#as"/><use transform="matrix(0.05,0,0,0.05,51.900000000000006,0)" xlink:href="#ax"/><use transform="matrix(0.05,0,0,0.05,61.900000000000006,0)" xlink:href="#an"/><use transform="matrix(0.05,0,0,0.05,71.9,0)" xlink:href="#ai"/><use transform="matrix(0.05,0,0,0.05,77.85000000000001,0)" xlink:href="#ah"/><use transform="matrix(0.05,0,0,0.05,82.85000000000001,0)" xlink:href="#aC"/></g><g id="ab"><use transform="matrix(0.05,0,0,0.05,0,0)" xlink:href="#bh"/><use transform="matrix(0.05,0,0,0.05,10,0)" xlink:href="#aj"/><use transform="matrix(0.05,0,0,0.05,13.949999999999998,0)" xlink:href="#ah"/><use transform="matrix(0.05,0,0,0.05,18.95,0)" xlink:href="#an"/><use transform="matrix(0.05,0,0,0.05,28.950000000000003,0)" xlink:href="#ai"/><use transform="matrix(0.05,0,0,0.05,34.9,0)" xlink:href="#am"/><use transform="matrix(0.05,0,0,0.05,44.9,0)" xlink:href="#at"/></g><path d="M140-251c81 0 123 46 123 126C263-46 219 4 140 4 59 4 17-45 17-125s42-126 123-126zm0 227c63 0 89-41 89-101s-29-99-89-99c-61 0-89 39-89 99S79-25 140-24" id="bp"/><g id="ac"><use transform="matrix(0.05,0,0,0.05,0,0)" xlink:href="#ai"/><use transform="matrix(0.05,0,0,0.05,5.95,0)" xlink:href="#af"/><use transform="matrix(0.05,0,0,0.05,15.949999999999998,0)" xlink:href="#aF"/><use transform="matrix(0.05,0,0,0.05,20.95,0)" xlink:href="#ae"/><use transform="matrix(0.05,0,0,0.05,29.950000000000003,0)" xlink:href="#ag"/><use transform="matrix(0.05,0,0,0.05,34.95,0)" xlink:href="#ae"/><use transform="matrix(0.05,0,0,0.05,43.95,0)" xlink:href="#ar"/><use transform="matrix(0.05,0,0,0.05,53.95,0)" xlink:href="#aI"/><use transform="matrix(0.05,0,0,0.05,63.95,0)" xlink:href="#bj"/><use transform="matrix(0.05,0,0,0.05,76.9,0)" xlink:href="#at"/><use transform="matrix(0.05,0,0,0.05,80.85000000000001,0)" xlink:href="#am"/><use transform="matrix(0.05,0,0,0.05,90.85000000000001,0)" xlink:href="#ae"/><use transform="matrix(0.05,0,0,0.05,99.85000000000001,0)" xlink:href="#ae"/><use transform="matrix(0.05,0,0,0.05,108.85000000000001,0)" xlink:href="#bp"/><use transform="matrix(0.05,0,0,0.05,122.85000000000001,0)" xlink:href="#aF"/></g></defs></g></svg>